<mxfile host="app.diagrams.net" agent="Mozilla/5.0 (Macintosh; Intel Mac OS X 10.15; rv:132.0) Gecko/20100101 Firefox/132.0" version="24.9.1">
  <diagram name="Page-1" id="2ONLQ2llJ2bFhIthNjk6">
    <mxGraphModel dx="2157" dy="837" grid="1" gridSize="10" guides="1" tooltips="1" connect="1" arrows="1" fold="1" page="1" pageScale="1" pageWidth="850" pageHeight="1100" math="0" shadow="0">
      <root>
        <mxCell id="0" />
        <mxCell id="1" parent="0" />
        <mxCell id="NpyAXvUKR84_gkl5Sbza-21" style="rounded=0;orthogonalLoop=1;jettySize=auto;html=1;exitX=1;exitY=0.3333333333333333;exitDx=0;exitDy=0;exitPerimeter=0;entryX=0;entryY=0.5;entryDx=0;entryDy=0;endArrow=none;endFill=0;" edge="1" parent="1" source="NpyAXvUKR84_gkl5Sbza-1" target="NpyAXvUKR84_gkl5Sbza-20">
          <mxGeometry relative="1" as="geometry">
            <mxPoint x="-560" y="230" as="targetPoint" />
          </mxGeometry>
        </mxCell>
        <mxCell id="NpyAXvUKR84_gkl5Sbza-22" value="&lt;font color=&quot;#ff6666&quot;&gt;DELETE&lt;/font&gt;" style="edgeLabel;html=1;align=center;verticalAlign=middle;resizable=0;points=[];" vertex="1" connectable="0" parent="NpyAXvUKR84_gkl5Sbza-21">
          <mxGeometry x="0.1042" y="1" relative="1" as="geometry">
            <mxPoint as="offset" />
          </mxGeometry>
        </mxCell>
        <mxCell id="NpyAXvUKR84_gkl5Sbza-1" value="&lt;div&gt;Client (Frontend)&lt;/div&gt;&lt;div&gt;/Nutzer&lt;br&gt;&lt;/div&gt;" style="shape=umlActor;verticalLabelPosition=bottom;verticalAlign=top;html=1;" vertex="1" parent="1">
          <mxGeometry x="-700" y="190" width="30" height="60" as="geometry" />
        </mxCell>
        <mxCell id="NpyAXvUKR84_gkl5Sbza-2" value="createMeeting" style="ellipse;whiteSpace=wrap;html=1;align=center;" vertex="1" parent="1">
          <mxGeometry x="-500" y="50" width="100" height="40" as="geometry" />
        </mxCell>
        <mxCell id="NpyAXvUKR84_gkl5Sbza-3" value="" style="endArrow=none;html=1;rounded=0;entryX=0;entryY=0.5;entryDx=0;entryDy=0;" edge="1" parent="1" target="NpyAXvUKR84_gkl5Sbza-2">
          <mxGeometry relative="1" as="geometry">
            <mxPoint x="-670" y="210" as="sourcePoint" />
            <mxPoint x="-290" y="210" as="targetPoint" />
          </mxGeometry>
        </mxCell>
        <mxCell id="NpyAXvUKR84_gkl5Sbza-4" value="POST" style="edgeLabel;html=1;align=center;verticalAlign=middle;resizable=0;points=[];" vertex="1" connectable="0" parent="NpyAXvUKR84_gkl5Sbza-3">
          <mxGeometry x="-0.1319" y="-1" relative="1" as="geometry">
            <mxPoint as="offset" />
          </mxGeometry>
        </mxCell>
        <mxCell id="NpyAXvUKR84_gkl5Sbza-6" value="&lt;div&gt;Validate Data&lt;/div&gt;&lt;div&gt;&amp;amp; Save in DB&lt;br&gt;&lt;/div&gt;" style="ellipse;whiteSpace=wrap;html=1;align=center;" vertex="1" parent="1">
          <mxGeometry x="-295" y="140" width="100" height="40" as="geometry" />
        </mxCell>
        <mxCell id="NpyAXvUKR84_gkl5Sbza-9" value="&amp;lt;&amp;lt;include&amp;gt;&amp;gt;" style="endArrow=open;endSize=12;dashed=1;html=1;rounded=0;exitX=1;exitY=0.5;exitDx=0;exitDy=0;entryX=0.5;entryY=0;entryDx=0;entryDy=0;edgeStyle=orthogonalEdgeStyle;" edge="1" parent="1" source="NpyAXvUKR84_gkl5Sbza-2" target="NpyAXvUKR84_gkl5Sbza-6">
          <mxGeometry width="160" relative="1" as="geometry">
            <mxPoint x="-460" y="100" as="sourcePoint" />
            <mxPoint x="-310" y="130" as="targetPoint" />
          </mxGeometry>
        </mxCell>
        <mxCell id="NpyAXvUKR84_gkl5Sbza-10" value="changeMeeting" style="ellipse;whiteSpace=wrap;html=1;align=center;" vertex="1" parent="1">
          <mxGeometry x="-500" y="140" width="100" height="40" as="geometry" />
        </mxCell>
        <mxCell id="NpyAXvUKR84_gkl5Sbza-11" value="&amp;lt;&amp;lt;include&amp;gt;&amp;gt;" style="endArrow=open;endSize=12;dashed=1;html=1;rounded=0;entryX=0;entryY=0.5;entryDx=0;entryDy=0;" edge="1" parent="1" target="NpyAXvUKR84_gkl5Sbza-6">
          <mxGeometry width="160" relative="1" as="geometry">
            <mxPoint x="-400" y="159.76999999999998" as="sourcePoint" />
            <mxPoint x="-320" y="160" as="targetPoint" />
          </mxGeometry>
        </mxCell>
        <mxCell id="NpyAXvUKR84_gkl5Sbza-12" value="getMeeting" style="ellipse;whiteSpace=wrap;html=1;align=center;" vertex="1" parent="1">
          <mxGeometry x="-500" y="310" width="100" height="40" as="geometry" />
        </mxCell>
        <mxCell id="NpyAXvUKR84_gkl5Sbza-13" value="" style="endArrow=none;html=1;rounded=0;exitX=1;exitY=0.3333333333333333;exitDx=0;exitDy=0;exitPerimeter=0;entryX=0;entryY=0.5;entryDx=0;entryDy=0;" edge="1" parent="1" source="NpyAXvUKR84_gkl5Sbza-1" target="NpyAXvUKR84_gkl5Sbza-10">
          <mxGeometry width="50" height="50" relative="1" as="geometry">
            <mxPoint x="-440" y="220" as="sourcePoint" />
            <mxPoint x="-390" y="170" as="targetPoint" />
          </mxGeometry>
        </mxCell>
        <mxCell id="NpyAXvUKR84_gkl5Sbza-14" value="&lt;font color=&quot;#ff6666&quot;&gt;PUT&lt;/font&gt;" style="edgeLabel;html=1;align=center;verticalAlign=middle;resizable=0;points=[];" vertex="1" connectable="0" parent="NpyAXvUKR84_gkl5Sbza-13">
          <mxGeometry x="0.2251" relative="1" as="geometry">
            <mxPoint as="offset" />
          </mxGeometry>
        </mxCell>
        <mxCell id="NpyAXvUKR84_gkl5Sbza-15" value="" style="endArrow=none;html=1;rounded=0;entryX=0;entryY=0.5;entryDx=0;entryDy=0;" edge="1" parent="1" target="NpyAXvUKR84_gkl5Sbza-12">
          <mxGeometry width="50" height="50" relative="1" as="geometry">
            <mxPoint x="-670" y="210" as="sourcePoint" />
            <mxPoint x="-390" y="170" as="targetPoint" />
          </mxGeometry>
        </mxCell>
        <mxCell id="NpyAXvUKR84_gkl5Sbza-16" value="&lt;font color=&quot;#ff6666&quot;&gt;GET&lt;/font&gt;" style="edgeLabel;html=1;align=center;verticalAlign=middle;resizable=0;points=[];" vertex="1" connectable="0" parent="NpyAXvUKR84_gkl5Sbza-15">
          <mxGeometry x="0.0358" y="-1" relative="1" as="geometry">
            <mxPoint as="offset" />
          </mxGeometry>
        </mxCell>
        <mxCell id="NpyAXvUKR84_gkl5Sbza-18" value="&lt;div&gt;retrieve Data&amp;nbsp;&lt;/div&gt;&lt;div&gt;from DB&lt;/div&gt;" style="ellipse;whiteSpace=wrap;html=1;align=center;" vertex="1" parent="1">
          <mxGeometry x="-295" y="310" width="100" height="40" as="geometry" />
        </mxCell>
        <mxCell id="NpyAXvUKR84_gkl5Sbza-19" value="&amp;lt;&amp;lt;include&amp;gt;&amp;gt;" style="endArrow=open;endSize=12;dashed=1;html=1;rounded=0;exitX=1;exitY=0.5;exitDx=0;exitDy=0;entryX=0;entryY=0.5;entryDx=0;entryDy=0;" edge="1" parent="1" source="NpyAXvUKR84_gkl5Sbza-12" target="NpyAXvUKR84_gkl5Sbza-18">
          <mxGeometry width="160" relative="1" as="geometry">
            <mxPoint x="-400" y="229.77999999999997" as="sourcePoint" />
            <mxPoint x="-295" y="230.01" as="targetPoint" />
          </mxGeometry>
        </mxCell>
        <mxCell id="NpyAXvUKR84_gkl5Sbza-20" value="deleteMeeting" style="ellipse;whiteSpace=wrap;html=1;align=center;fontStyle=4;" vertex="1" parent="1">
          <mxGeometry x="-500" y="210" width="100" height="40" as="geometry" />
        </mxCell>
        <mxCell id="NpyAXvUKR84_gkl5Sbza-23" value="&amp;lt;&amp;lt;extends&amp;gt;&amp;gt;" style="endArrow=open;endSize=12;dashed=1;html=1;rounded=0;entryX=0.5;entryY=0;entryDx=0;entryDy=0;exitX=0.5;exitY=1;exitDx=0;exitDy=0;" edge="1" parent="1" source="NpyAXvUKR84_gkl5Sbza-20" target="NpyAXvUKR84_gkl5Sbza-12">
          <mxGeometry width="160" relative="1" as="geometry">
            <mxPoint x="-390" y="280" as="sourcePoint" />
            <mxPoint x="-360" y="250" as="targetPoint" />
          </mxGeometry>
        </mxCell>
        <mxCell id="NpyAXvUKR84_gkl5Sbza-24" value="&amp;lt;&amp;lt;include&amp;gt;&amp;gt;" style="endArrow=open;endSize=12;dashed=1;html=1;rounded=0;exitX=1;exitY=0.5;exitDx=0;exitDy=0;entryX=0.517;entryY=0.999;entryDx=0;entryDy=0;entryPerimeter=0;edgeStyle=orthogonalEdgeStyle;" edge="1" parent="1" source="NpyAXvUKR84_gkl5Sbza-20" target="NpyAXvUKR84_gkl5Sbza-6">
          <mxGeometry width="160" relative="1" as="geometry">
            <mxPoint x="-520" y="250" as="sourcePoint" />
            <mxPoint x="-290" y="160" as="targetPoint" />
          </mxGeometry>
        </mxCell>
        <mxCell id="NpyAXvUKR84_gkl5Sbza-25" value="" style="swimlane;startSize=0;strokeWidth=3;" vertex="1" parent="1">
          <mxGeometry x="-530" y="10" width="370" height="380" as="geometry" />
        </mxCell>
        <mxCell id="NpyAXvUKR84_gkl5Sbza-26" value="Meeting Manager" style="text;strokeColor=none;fillColor=none;spacingLeft=4;spacingRight=4;overflow=hidden;rotatable=0;points=[[0,0.5],[1,0.5]];portConstraint=eastwest;fontSize=12;whiteSpace=wrap;html=1;" vertex="1" parent="NpyAXvUKR84_gkl5Sbza-25">
          <mxGeometry x="125" width="110" height="30" as="geometry" />
        </mxCell>
      </root>
    </mxGraphModel>
  </diagram>
</mxfile>
